<?xml version="1.0" encoding="utf-8"?>
<!-- Generator: Adobe Illustrator 16.0.0, SVG Export Plug-In . SVG Version: 6.00 Build 0)  -->
<!DOCTYPE svg PUBLIC "-//W3C//DTD SVG 1.1//EN" "http://www.w3.org/Graphics/SVG/1.1/DTD/svg11.dtd">
<svg version="1.1" id="Capa_1" xmlns="http://www.w3.org/2000/svg" xmlns:xlink="http://www.w3.org/1999/xlink" x="0px" y="0px"
	 width="36px" height="35.787px" viewBox="0 0 36 35.787" enable-background="new 0 0 36 35.787" xml:space="preserve">
<g>
	<path fill-rule="evenodd" clip-rule="evenodd" fill="#FFFFFF" d="M18.004,0.006c2.614,0,5.229-0.021,7.843,0.014
		c0.732,0.009,1.467,0.146,2.19,0.283c1.044,0.199,2.008,0.631,2.909,1.189c0.427,0.265,0.825,0.576,1.232,0.872
		c0.231,0.168,0.475,0.326,0.677,0.526c0.706,0.696,1.284,1.489,1.782,2.348c0.579,0.998,0.963,2.067,1.186,3.19
		c0.107,0.544,0.164,1.107,0.165,1.662c0.012,5.238,0.021,10.476-0.003,15.713c-0.006,1.317-0.294,2.6-0.88,3.791
		c-0.332,0.675-0.703,1.333-1.095,1.976c-0.165,0.271-0.432,0.48-0.645,0.724c-0.159,0.182-0.283,0.4-0.463,0.556
		c-0.377,0.326-0.782,0.619-1.172,0.931c-0.86,0.689-1.848,1.141-2.883,1.481c-0.57,0.188-1.166,0.332-1.762,0.403
		c-0.755,0.089-1.521,0.113-2.283,0.114c-4.867,0.009-9.734,0.011-14.6-0.002c-0.815-0.002-1.62-0.132-2.418-0.333
		c-0.847-0.214-1.644-0.542-2.405-0.945c-0.496-0.263-0.933-0.638-1.397-0.961c-0.163-0.114-0.35-0.203-0.487-0.341
		c-0.333-0.337-0.65-0.691-0.959-1.05c-0.272-0.316-0.56-0.627-0.78-0.979c-0.752-1.196-1.304-2.473-1.549-3.88
		c-0.163-0.937-0.204-1.875-0.204-2.82c0.001-4.708-0.018-9.416,0.011-14.123c0.009-1.5,0.306-2.962,0.988-4.321
		c0.229-0.457,0.44-0.927,0.712-1.358c0.223-0.354,0.521-0.66,0.789-0.984c0.182-0.22,0.352-0.453,0.554-0.653
		c0.633-0.624,1.334-1.156,2.107-1.603c0.953-0.551,1.961-0.953,3.029-1.183c0.625-0.134,1.273-0.22,1.912-0.226
		C12.739-0.008,15.372,0.006,18.004,0.006z M3.451,17.878c0,2.642-0.001,5.283,0.002,7.924c0,0.235,0.01,0.476,0.059,0.705
		c0.153,0.709,0.354,1.399,0.688,2.055c0.535,1.05,1.299,1.884,2.246,2.565c1.228,0.883,2.623,1.255,4.113,1.26
		c4.399,0.013,8.798,0.011,13.197,0c1.019-0.002,2.047,0.011,3.053-0.122c1.456-0.193,2.704-0.897,3.735-1.938
		c0.491-0.496,0.911-1.056,1.245-1.688c0.53-1.002,0.804-2.061,0.807-3.177c0.016-4.779,0.008-9.559,0.004-14.337
		c0-0.439-0.03-0.877-0.051-1.316c-0.042-0.907-0.304-1.747-0.718-2.555c-0.547-1.069-1.319-1.915-2.293-2.613
		c-1.19-0.854-2.528-1.227-3.958-1.233c-4.629-0.023-9.258-0.011-13.887-0.007c-0.588,0.001-1.176,0.038-1.765,0.05
		C9.091,3.467,8.302,3.689,7.548,4.035C6.061,4.716,4.942,5.788,4.195,7.248c-0.5,0.977-0.749,2.007-0.746,3.104
		C3.455,12.861,3.451,15.37,3.451,17.878z"/>
	<path fill-rule="evenodd" clip-rule="evenodd" fill="#FFFFFF" d="M27.31,17.693c-0.013,1.625-0.339,3.037-1.017,4.357
		c-0.515,1-1.179,1.9-2.029,2.639c-1.281,1.113-2.759,1.873-4.432,2.172c-0.787,0.141-1.607,0.202-2.404,0.161
		c-1.58-0.083-3.057-0.547-4.412-1.396c-0.802-0.501-1.528-1.088-2.135-1.8c-0.951-1.114-1.621-2.393-1.96-3.824
		c-0.116-0.487-0.18-0.991-0.214-1.49c-0.036-0.523-0.048-1.054,0.001-1.575c0.082-0.854,0.288-1.684,0.613-2.485
		c0.526-1.296,1.296-2.423,2.325-3.362c0.535-0.488,1.127-0.906,1.77-1.258c0.968-0.53,1.993-0.903,3.076-1.06
		c0.704-0.102,1.429-0.077,2.144-0.071c1.072,0.009,2.086,0.303,3.078,0.688c0.807,0.313,1.524,0.782,2.203,1.309
		c1.164,0.901,1.996,2.061,2.6,3.394c0.382,0.842,0.597,1.731,0.728,2.641C27.295,17.094,27.295,17.464,27.31,17.693z
		 M11.946,17.855c0.05,0.432,0.058,0.874,0.157,1.295c0.36,1.534,1.255,2.709,2.538,3.592c0.714,0.492,1.512,0.773,2.373,0.917
		c0.756,0.126,1.497,0.108,2.237-0.045c0.963-0.199,1.841-0.587,2.591-1.239c0.645-0.56,1.227-1.174,1.585-1.959
		c0.564-1.24,0.729-2.528,0.433-3.871c-0.314-1.42-1.058-2.565-2.218-3.424c-1.376-1.019-2.941-1.324-4.616-1.079
		c-1.743,0.255-3.093,1.166-4.081,2.6C12.285,15.598,11.933,16.669,11.946,17.855z"/>
	<path fill-rule="evenodd" clip-rule="evenodd" fill="#FFFFFF" d="M27.484,10.607c-1.256,0.024-2.211-0.98-2.181-2.183
		c0.035-1.363,0.952-2.178,2.193-2.193c1.238-0.015,2.24,0.946,2.196,2.327C29.659,9.615,28.731,10.672,27.484,10.607z"/>
</g>
</svg>
