<?xml version="1.0" encoding="utf-8"?>
<!-- Generator: Adobe Illustrator 16.0.0, SVG Export Plug-In . SVG Version: 6.00 Build 0)  -->
<!DOCTYPE svg PUBLIC "-//W3C//DTD SVG 1.1//EN" "http://www.w3.org/Graphics/SVG/1.1/DTD/svg11.dtd">
<svg version="1.1" id="Capa_1" xmlns="http://www.w3.org/2000/svg" xmlns:xlink="http://www.w3.org/1999/xlink" x="0px" y="0px"
	 width="36px" height="36.305px" viewBox="0 0 36 36.305" enable-background="new 0 0 36 36.305" xml:space="preserve">
<g>
	<path fill-rule="evenodd" clip-rule="evenodd" fill="#FFFFFF" d="M0,36.305c0.1-0.301,0.161-0.487,0.224-0.673
		c0.546-1.638,1.089-3.276,1.64-4.913c0.382-1.133,0.755-2.27,1.171-3.39c0.165-0.443,0.009-0.744-0.196-1.117
		c-0.896-1.634-1.522-3.365-1.876-5.205c-0.499-2.591-0.426-5.164,0.226-7.702c0.568-2.214,1.517-4.268,2.905-6.115
		c1.353-1.798,2.962-3.31,4.849-4.513c1.493-0.952,3.115-1.635,4.834-2.08c2.559-0.663,5.124-0.791,7.741-0.304
		c2.72,0.506,5.166,1.585,7.379,3.213c1.802,1.324,3.277,2.953,4.458,4.855c1.095,1.765,1.923,3.651,2.27,5.689
		c0.263,1.545,0.422,3.139,0.359,4.7c-0.071,1.751-0.42,3.496-1.08,5.148c-0.839,2.099-1.964,4.019-3.503,5.694
		c-1.517,1.651-3.26,3.003-5.274,3.97c-1.541,0.739-3.149,1.294-4.864,1.542c-1.381,0.2-2.756,0.31-4.145,0.215
		c-1.988-0.136-3.912-0.558-5.733-1.388c-0.496-0.226-0.979-0.477-1.473-0.707c-0.076-0.035-0.185-0.044-0.264-0.019
		C8,33.742,6.354,34.291,4.702,34.821c-1.186,0.38-2.378,0.735-3.566,1.105C0.796,36.032,0.461,36.15,0,36.305z M4.631,31.701
		c0.152-0.016,0.23-0.011,0.299-0.033c1.66-0.531,3.324-1.052,4.975-1.61c0.28-0.095,0.453-0.05,0.683,0.089
		c1.791,1.084,3.701,1.817,5.794,2.1c1.565,0.211,3.123,0.162,4.651-0.116c1.497-0.272,2.94-0.786,4.291-1.528
		c2.477-1.363,4.413-3.285,5.82-5.718c0.805-1.391,1.356-2.905,1.621-4.494c0.36-2.16,0.319-4.302-0.24-6.45
		c-0.459-1.764-1.209-3.379-2.268-4.815C27.63,5.563,24.078,3.509,19.662,3.03c-1.494-0.162-2.997-0.049-4.458,0.286
		C12.532,3.93,10.167,5.153,8.188,7.08c-1.217,1.185-2.23,2.515-2.994,4.036c-0.835,1.662-1.305,3.425-1.513,5.266
		C3.487,18.1,3.7,19.792,4.12,21.446c0.42,1.651,1.156,3.178,2.139,4.582c0.098,0.14,0.141,0.392,0.09,0.553
		c-0.324,1.023-0.684,2.035-1.029,3.052C5.094,30.304,4.872,30.977,4.631,31.701z"/>
	<path fill-rule="evenodd" clip-rule="evenodd" fill="#FFFFFF" d="M9.495,13.545c0-1.551,0.5-2.899,1.652-3.971
		c0.512-0.477,1.107-0.662,1.813-0.521c0.473,0.095,1.023-0.018,1.262,0.574c0.157,0.388,0.313,0.777,0.457,1.17
		c0.277,0.759,0.506,1.537,0.827,2.276c0.296,0.685,0.083,1.213-0.352,1.714c-0.255,0.294-0.531,0.571-0.801,0.852
		c-0.269,0.28-0.32,0.563-0.127,0.928c1.345,2.548,3.351,4.38,5.968,5.558c0.303,0.136,0.583,0.166,0.841-0.127
		c0.471-0.536,0.984-1.035,1.44-1.583c0.388-0.466,0.616-0.576,1.139-0.32c0.726,0.356,1.438,0.741,2.154,1.117
		c0.412,0.216,0.818,0.444,1.232,0.654c0.335,0.17,0.517,0.396,0.512,0.806c-0.017,1.585-0.767,2.644-2.182,3.336
		c-1.795,0.878-3.484,0.492-5.168-0.249c-0.995-0.438-1.983-0.896-2.941-1.407c-1.287-0.688-2.392-1.636-3.328-2.738
		c-0.972-1.144-1.874-2.354-2.733-3.586c-0.814-1.167-1.386-2.464-1.659-3.874C9.462,13.958,9.495,13.749,9.495,13.545z"/>
</g>
</svg>
